<svg width="800" height="1270" viewBox="0 0 800 1270" fill="none" xmlns="http://www.w3.org/2000/svg">
<mask id="path-1-inside-1_287_77" fill="white">
<path d="M795.383 660.142C790.803 653.579 783.434 649.522 775.43 649.18L279.183 627.79C264.944 627.167 253.046 638.159 252.437 652.331C251.832 666.498 262.807 678.468 276.977 679.076L739.628 699.02L648.661 982.843H243.848L170.712 584.626C169.104 575.898 163.112 568.617 154.848 565.375L35.0648 518.317C21.8631 513.148 6.96603 519.632 1.78132 532.818C-3.39443 546.011 3.08824 560.917 16.2827 566.101L122.789 607.943L197.216 1013.15C199.459 1025.33 210.075 1034.18 222.466 1034.18H234.812L206.62 1112.49C204.26 1119.05 205.233 1126.33 209.248 1132.03C213.258 1137.73 219.781 1141.12 226.743 1141.12H246.517C234.264 1154.76 226.743 1172.71 226.743 1192.46C226.743 1234.92 261.294 1269.46 303.747 1269.46C346.201 1269.46 380.752 1234.92 380.752 1192.46C380.752 1172.71 373.231 1154.76 360.98 1141.12H528.868C516.61 1154.76 509.091 1172.71 509.091 1192.46C509.091 1234.92 543.633 1269.46 586.095 1269.46C628.559 1269.46 663.1 1234.92 663.1 1192.46C663.1 1172.71 655.58 1154.76 643.331 1141.12H667.378C679.194 1141.12 688.769 1131.54 688.769 1119.73C688.769 1107.92 679.193 1098.34 667.378 1098.34H257.178L280.276 1034.17H667.376C678.539 1034.17 688.416 1026.96 691.816 1016.34L798.767 682.652C801.223 675.036 799.962 666.709 795.383 660.142ZM303.749 1226.69C284.874 1226.69 269.524 1211.34 269.524 1192.47C269.524 1173.59 284.874 1158.24 303.749 1158.24C322.624 1158.24 337.972 1173.59 337.972 1192.47C337.972 1211.34 322.624 1226.69 303.749 1226.69ZM586.095 1226.69C567.22 1226.69 551.872 1211.34 551.872 1192.47C551.872 1173.59 567.22 1158.24 586.095 1158.24C604.97 1158.24 620.319 1173.59 620.319 1192.47C620.319 1211.34 604.97 1226.69 586.095 1226.69Z"/>
<path d="M448.865 399.064L419.199 414.263L404 384.596L433.667 369.397L448.865 399.064ZM538.596 428L523.397 398.333L493.731 413.532L508.929 443.199L538.596 428ZM568.994 487.333L553.795 457.667L524.128 472.865L539.327 502.532L568.994 487.333ZM344.667 414.994L359.865 444.66L389.532 429.462L374.333 399.795L344.667 414.994ZM479.263 458.397L508.929 443.199L524.128 472.865L494.462 488.064L524.859 547.397L406.192 608.192L345.397 489.526L404.731 459.128L389.532 429.462L419.199 414.263L434.397 443.93L464.064 428.731L479.263 458.397ZM449.596 473.596L390.263 503.994L420.66 563.327L479.994 532.929L449.596 473.596ZM493 339L463.333 354.199L478.532 383.865L508.199 368.667L493 339ZM448.865 399.064L464.064 428.731L493.731 413.532L478.532 383.865L448.865 399.064Z"/>
<path d="M448.865 60.0641L419.199 75.2629L404 45.5962L433.667 30.3975L448.865 60.0641ZM538.596 88.9999L523.397 59.3333L493.731 74.532L508.929 104.199L538.596 88.9999ZM568.994 148.333L553.795 118.667L524.128 133.865L539.327 163.532L568.994 148.333ZM344.667 75.9937L359.865 105.66L389.532 90.4616L374.333 60.795L344.667 75.9937ZM479.263 119.397L508.929 104.199L524.128 133.865L494.462 149.064L524.859 208.397L406.192 269.192L345.397 150.526L404.731 120.128L389.532 90.4616L419.199 75.2629L434.397 104.929L464.064 89.7308L479.263 119.397ZM449.596 134.596L390.263 164.994L420.66 224.327L479.994 193.929L449.596 134.596ZM493 0L463.333 15.1987L478.532 44.8654L508.199 29.6666L493 0ZM448.865 60.0641L464.064 89.7308L493.731 74.532L478.532 44.8654L448.865 60.0641Z"/>
</mask>
<path d="M795.383 660.142C790.803 653.579 783.434 649.522 775.43 649.18L279.183 627.79C264.944 627.167 253.046 638.159 252.437 652.331C251.832 666.498 262.807 678.468 276.977 679.076L739.628 699.02L648.661 982.843H243.848L170.712 584.626C169.104 575.898 163.112 568.617 154.848 565.375L35.0648 518.317C21.8631 513.148 6.96603 519.632 1.78132 532.818C-3.39443 546.011 3.08824 560.917 16.2827 566.101L122.789 607.943L197.216 1013.15C199.459 1025.33 210.075 1034.18 222.466 1034.18H234.812L206.62 1112.49C204.26 1119.05 205.233 1126.33 209.248 1132.03C213.258 1137.73 219.781 1141.12 226.743 1141.12H246.517C234.264 1154.76 226.743 1172.71 226.743 1192.46C226.743 1234.92 261.294 1269.46 303.747 1269.46C346.201 1269.46 380.752 1234.92 380.752 1192.46C380.752 1172.71 373.231 1154.76 360.98 1141.12H528.868C516.61 1154.76 509.091 1172.71 509.091 1192.46C509.091 1234.92 543.633 1269.46 586.095 1269.46C628.559 1269.46 663.1 1234.92 663.1 1192.46C663.1 1172.71 655.58 1154.76 643.331 1141.12H667.378C679.194 1141.12 688.769 1131.54 688.769 1119.73C688.769 1107.92 679.193 1098.34 667.378 1098.34H257.178L280.276 1034.17H667.376C678.539 1034.17 688.416 1026.96 691.816 1016.34L798.767 682.652C801.223 675.036 799.962 666.709 795.383 660.142ZM303.749 1226.69C284.874 1226.69 269.524 1211.34 269.524 1192.47C269.524 1173.59 284.874 1158.24 303.749 1158.24C322.624 1158.24 337.972 1173.59 337.972 1192.47C337.972 1211.34 322.624 1226.69 303.749 1226.69ZM586.095 1226.69C567.22 1226.69 551.872 1211.34 551.872 1192.47C551.872 1173.59 567.22 1158.24 586.095 1158.24C604.97 1158.24 620.319 1173.59 620.319 1192.47C620.319 1211.34 604.97 1226.69 586.095 1226.69Z" fill="black"/>
<path d="M448.865 399.064L419.199 414.263L404 384.596L433.667 369.397L448.865 399.064ZM538.596 428L523.397 398.333L493.731 413.532L508.929 443.199L538.596 428ZM568.994 487.333L553.795 457.667L524.128 472.865L539.327 502.532L568.994 487.333ZM344.667 414.994L359.865 444.66L389.532 429.462L374.333 399.795L344.667 414.994ZM479.263 458.397L508.929 443.199L524.128 472.865L494.462 488.064L524.859 547.397L406.192 608.192L345.397 489.526L404.731 459.128L389.532 429.462L419.199 414.263L434.397 443.93L464.064 428.731L479.263 458.397ZM449.596 473.596L390.263 503.994L420.66 563.327L479.994 532.929L449.596 473.596ZM493 339L463.333 354.199L478.532 383.865L508.199 368.667L493 339ZM448.865 399.064L464.064 428.731L493.731 413.532L478.532 383.865L448.865 399.064Z" fill="black"/>
<path d="M448.865 60.0641L419.199 75.2629L404 45.5962L433.667 30.3975L448.865 60.0641ZM538.596 88.9999L523.397 59.3333L493.731 74.532L508.929 104.199L538.596 88.9999ZM568.994 148.333L553.795 118.667L524.128 133.865L539.327 163.532L568.994 148.333ZM344.667 75.9937L359.865 105.66L389.532 90.4616L374.333 60.795L344.667 75.9937ZM479.263 119.397L508.929 104.199L524.128 133.865L494.462 149.064L524.859 208.397L406.192 269.192L345.397 150.526L404.731 120.128L389.532 90.4616L419.199 75.2629L434.397 104.929L464.064 89.7308L479.263 119.397ZM449.596 134.596L390.263 164.994L420.66 224.327L479.994 193.929L449.596 134.596ZM493 0L463.333 15.1987L478.532 44.8654L508.199 29.6666L493 0ZM448.865 60.0641L464.064 89.7308L493.731 74.532L478.532 44.8654L448.865 60.0641Z" fill="black"/>
<path d="M795.383 660.142L796.203 659.57L796.203 659.57L795.383 660.142ZM775.43 649.18L775.387 650.179L775.387 650.179L775.43 649.18ZM279.183 627.79L279.139 628.789L279.14 628.789L279.183 627.79ZM252.437 652.331L251.438 652.288L251.438 652.288L252.437 652.331ZM276.977 679.076L277.02 678.077L277.02 678.077L276.977 679.076ZM739.628 699.02L740.58 699.326L740.98 698.078L739.671 698.021L739.628 699.02ZM648.661 982.843V983.843H649.39L649.613 983.149L648.661 982.843ZM243.848 982.843L242.864 983.024L243.014 983.843H243.848V982.843ZM170.712 584.626L171.696 584.445L171.696 584.445L170.712 584.626ZM154.848 565.375L154.483 566.305L154.483 566.305L154.848 565.375ZM35.0648 518.317L35.4304 517.386L35.4293 517.385L35.0648 518.317ZM1.78132 532.818L0.850683 532.452L0.850401 532.453L1.78132 532.818ZM16.2827 566.101L15.917 567.032L15.9171 567.032L16.2827 566.101ZM122.789 607.943L123.773 607.762L123.672 607.215L123.155 607.012L122.789 607.943ZM197.216 1013.15L196.232 1013.33L196.232 1013.33L197.216 1013.15ZM234.812 1034.18L235.753 1034.52L236.235 1033.18H234.812V1034.18ZM206.62 1112.49L205.679 1112.15L205.679 1112.15L206.62 1112.49ZM209.248 1132.03L210.066 1131.45L210.066 1131.45L209.248 1132.03ZM246.517 1141.12L247.261 1141.79L248.76 1140.12H246.517V1141.12ZM360.98 1141.12V1140.12H358.737L360.236 1141.79L360.98 1141.12ZM528.868 1141.12L529.612 1141.79L531.112 1140.12H528.868V1141.12ZM643.331 1141.12V1140.12H641.089L642.587 1141.79L643.331 1141.12ZM257.178 1098.34L256.237 1098L255.755 1099.34H257.178V1098.34ZM280.276 1034.17V1033.17H279.574L279.336 1033.83L280.276 1034.17ZM691.816 1016.34L690.864 1016.03L690.863 1016.04L691.816 1016.34ZM798.767 682.652L797.815 682.345L797.814 682.346L798.767 682.652ZM404 384.596L403.544 383.706L402.654 384.162L403.11 385.052L404 384.596ZM433.667 369.397L434.557 368.942L434.101 368.052L433.211 368.507L433.667 369.397ZM538.596 428L539.052 428.89L539.942 428.434L539.486 427.544L538.596 428ZM523.397 398.333L524.287 397.877L523.831 396.987L522.941 397.443L523.397 398.333ZM568.994 487.333L569.45 488.223L570.34 487.767L569.884 486.877L568.994 487.333ZM553.795 457.667L554.685 457.211L554.229 456.321L553.339 456.777L553.795 457.667ZM539.327 502.532L538.437 502.988L538.893 503.878L539.783 503.422L539.327 502.532ZM344.667 414.994L344.211 414.104L343.321 414.56L343.777 415.45L344.667 414.994ZM359.865 444.66L358.975 445.116L359.431 446.006L360.321 445.55L359.865 444.66ZM374.333 399.795L375.223 399.339L374.767 398.449L373.877 398.905L374.333 399.795ZM479.263 458.397L478.373 458.853L478.829 459.743L479.719 459.287L479.263 458.397ZM494.462 488.064L494.006 487.174L493.116 487.63L493.572 488.52L494.462 488.064ZM524.859 547.397L525.315 548.287L526.205 547.831L525.749 546.941L524.859 547.397ZM406.192 608.192L405.302 608.648L405.758 609.538L406.648 609.082L406.192 608.192ZM345.397 489.526L344.942 488.636L344.052 489.092L344.507 489.982L345.397 489.526ZM404.731 459.128L405.187 460.018L406.077 459.562L405.621 458.672L404.731 459.128ZM434.397 443.93L433.507 444.385L433.963 445.275L434.853 444.82L434.397 443.93ZM449.596 473.596L450.486 473.14L450.03 472.25L449.14 472.706L449.596 473.596ZM390.263 503.994L389.807 503.104L388.917 503.56L389.373 504.45L390.263 503.994ZM420.66 563.327L419.77 563.783L420.226 564.673L421.116 564.217L420.66 563.327ZM479.994 532.929L480.45 533.819L481.34 533.363L480.884 532.473L479.994 532.929ZM493 339L493.89 338.544L493.434 337.654L492.544 338.11L493 339ZM463.333 354.199L462.877 353.309L461.987 353.765L462.443 354.655L463.333 354.199ZM508.199 368.667L508.655 369.557L509.545 369.101L509.089 368.211L508.199 368.667ZM404 45.5962L403.544 44.7062L402.654 45.1622L403.11 46.0522L404 45.5962ZM433.667 30.3975L434.557 29.9415L434.101 29.0515L433.211 29.5075L433.667 30.3975ZM538.596 88.9999L539.052 89.8899L539.942 89.434L539.486 88.544L538.596 88.9999ZM523.397 59.3333L524.287 58.8773L523.831 57.9873L522.941 58.4433L523.397 59.3333ZM568.994 148.333L569.45 149.223L570.34 148.767L569.884 147.877L568.994 148.333ZM553.795 118.667L554.685 118.211L554.229 117.321L553.339 117.777L553.795 118.667ZM539.327 163.532L538.437 163.988L538.893 164.878L539.783 164.422L539.327 163.532ZM344.667 75.9937L344.211 75.1037L343.321 75.5597L343.777 76.4497L344.667 75.9937ZM359.865 105.66L358.975 106.116L359.431 107.006L360.321 106.55L359.865 105.66ZM374.333 60.795L375.223 60.339L374.767 59.449L373.877 59.905L374.333 60.795ZM479.263 119.397L478.373 119.853L478.829 120.743L479.719 120.287L479.263 119.397ZM494.462 149.064L494.006 148.174L493.116 148.63L493.572 149.52L494.462 149.064ZM524.859 208.397L525.315 209.287L526.205 208.831L525.749 207.941L524.859 208.397ZM406.192 269.192L405.302 269.648L405.758 270.538L406.648 270.082L406.192 269.192ZM345.397 150.526L344.942 149.636L344.052 150.092L344.507 150.982L345.397 150.526ZM404.731 120.128L405.187 121.018L406.077 120.562L405.621 119.672L404.731 120.128ZM434.397 104.929L433.507 105.385L433.963 106.275L434.853 105.819L434.397 104.929ZM449.596 134.596L450.486 134.14L450.03 133.25L449.14 133.706L449.596 134.596ZM390.263 164.994L389.807 164.104L388.917 164.56L389.373 165.45L390.263 164.994ZM420.66 224.327L419.77 224.783L420.226 225.673L421.116 225.217L420.66 224.327ZM479.994 193.929L480.45 194.819L481.34 194.363L480.884 193.473L479.994 193.929ZM493 0L493.89 -0.455962L493.434 -1.34596L492.544 -0.889999L493 0ZM463.333 15.1987L462.877 14.3087L461.987 14.7647L462.443 15.6547L463.333 15.1987ZM508.199 29.6666L508.655 30.5566L509.545 30.1007L509.089 29.2107L508.199 29.6666ZM796.203 659.57C791.445 652.752 783.789 648.536 775.473 648.181L775.387 650.179C783.079 650.508 790.161 654.406 794.563 660.714L796.203 659.57ZM775.473 648.181L279.226 626.791L279.14 628.789L775.387 650.179L775.473 648.181ZM279.226 626.791C264.433 626.143 252.071 637.567 251.438 652.288L253.436 652.374C254.022 638.751 265.455 628.19 279.139 628.789L279.226 626.791ZM251.438 652.288C250.81 667.006 262.212 679.443 276.934 680.075L277.02 678.077C263.402 677.492 252.855 665.989 253.436 652.374L251.438 652.288ZM276.934 680.075L739.585 700.019L739.671 698.021L277.02 678.077L276.934 680.075ZM738.675 698.715L647.709 982.538L649.613 983.149L740.58 699.326L738.675 698.715ZM648.661 981.843H243.848V983.843H648.661V981.843ZM244.831 982.663L171.696 584.445L169.729 584.806L242.864 983.024L244.831 982.663ZM171.696 584.445C170.025 575.378 163.8 567.812 155.213 564.444L154.483 566.305C162.425 569.421 168.183 576.418 169.729 584.807L171.696 584.445ZM155.214 564.444L35.4304 517.386L34.6991 519.247L154.483 566.305L155.214 564.444ZM35.4293 517.385C21.7152 512.016 6.23777 518.752 0.850684 532.452L2.71196 533.184C7.69429 520.513 22.011 514.28 34.7002 519.248L35.4293 517.385ZM0.850401 532.453C-4.52658 546.158 2.20769 561.645 15.917 567.032L16.6485 565.171C3.96879 560.188 -2.26227 545.863 2.71224 533.183L0.850401 532.453ZM15.9171 567.032L122.424 608.873L123.155 607.012L16.6484 565.171L15.9171 567.032ZM121.806 608.123L196.232 1013.33L198.199 1012.97L123.773 607.762L121.806 608.123ZM196.232 1013.33C198.563 1025.99 209.593 1035.18 222.466 1035.18V1033.18C210.558 1033.18 200.355 1024.68 198.199 1012.97L196.232 1013.33ZM222.466 1035.18H234.812V1033.18H222.466V1035.18ZM233.871 1033.84L205.679 1112.15L207.561 1112.82L235.753 1034.52L233.871 1033.84ZM205.679 1112.15C203.21 1119.01 204.227 1126.64 208.431 1132.6L210.066 1131.45C206.239 1126.02 205.311 1119.08 207.561 1112.82L205.679 1112.15ZM208.43 1132.6C212.628 1138.57 219.454 1142.12 226.743 1142.12V1140.12C220.107 1140.12 213.889 1136.89 210.066 1131.45L208.43 1132.6ZM226.743 1142.12H246.517V1140.12H226.743V1142.12ZM245.773 1140.45C233.364 1154.26 225.743 1172.45 225.743 1192.46H227.743C227.743 1172.97 235.164 1155.25 247.261 1141.79L245.773 1140.45ZM225.743 1192.46C225.743 1235.47 260.742 1270.46 303.747 1270.46V1268.46C261.846 1268.46 227.743 1234.37 227.743 1192.46H225.743ZM303.747 1270.46C346.753 1270.46 381.752 1235.47 381.752 1192.46H379.752C379.752 1234.37 345.648 1268.46 303.747 1268.46V1270.46ZM381.752 1192.46C381.752 1172.45 374.13 1154.26 361.723 1140.45L360.236 1141.79C372.331 1155.25 379.752 1172.97 379.752 1192.46H381.752ZM360.98 1142.12H528.868V1140.12H360.98V1142.12ZM528.125 1140.45C515.71 1154.26 508.091 1172.45 508.091 1192.46H510.091C510.091 1172.97 517.51 1155.25 529.612 1141.79L528.125 1140.45ZM508.091 1192.46C508.091 1235.47 543.081 1270.46 586.095 1270.46V1268.46C544.185 1268.46 510.091 1234.37 510.091 1192.46H508.091ZM586.095 1270.46C629.112 1270.46 664.1 1235.47 664.1 1192.46H662.1C662.1 1234.37 628.007 1268.46 586.095 1268.46V1270.46ZM664.1 1192.46C664.1 1172.45 656.48 1154.26 644.075 1140.45L642.587 1141.79C654.68 1155.25 662.1 1172.97 662.1 1192.46H664.1ZM643.331 1142.12H667.378V1140.12H643.331V1142.12ZM667.378 1142.12C679.747 1142.12 689.769 1132.1 689.769 1119.73H687.769C687.769 1130.99 678.642 1140.12 667.378 1140.12V1142.12ZM689.769 1119.73C689.769 1107.36 679.745 1097.34 667.378 1097.34V1099.34C678.64 1099.34 687.769 1108.47 687.769 1119.73H689.769ZM667.378 1097.34H257.178V1099.34H667.378V1097.34ZM258.119 1098.68L281.217 1034.51L279.336 1033.83L256.237 1098L258.119 1098.68ZM280.276 1035.17H667.376V1033.17H280.276V1035.17ZM667.376 1035.17C678.974 1035.17 689.236 1027.68 692.768 1016.64L690.863 1016.04C687.596 1026.24 678.104 1033.17 667.376 1033.17V1035.17ZM692.768 1016.65L799.719 682.957L797.814 682.346L690.864 1016.03L692.768 1016.65ZM799.718 682.959C802.271 675.044 800.961 666.392 796.203 659.57L794.563 660.714C798.964 667.026 800.175 675.028 797.815 682.345L799.718 682.959ZM303.749 1225.69C285.426 1225.69 270.524 1210.79 270.524 1192.47H268.524C268.524 1211.89 284.322 1227.69 303.749 1227.69V1225.69ZM270.524 1192.47C270.524 1174.14 285.426 1159.24 303.749 1159.24V1157.24C284.322 1157.24 268.524 1173.04 268.524 1192.47H270.524ZM303.749 1159.24C322.072 1159.24 336.972 1174.14 336.972 1192.47H338.972C338.972 1173.04 323.177 1157.24 303.749 1157.24V1159.24ZM336.972 1192.47C336.972 1210.79 322.072 1225.69 303.749 1225.69V1227.69C323.176 1227.69 338.972 1211.89 338.972 1192.47H336.972ZM586.095 1225.69C567.772 1225.69 552.872 1210.79 552.872 1192.47H550.872C550.872 1211.89 566.668 1227.69 586.095 1227.69V1225.69ZM552.872 1192.47C552.872 1174.14 567.772 1159.24 586.095 1159.24V1157.24C566.668 1157.24 550.872 1173.04 550.872 1192.47H552.872ZM586.095 1159.24C604.418 1159.24 619.319 1174.14 619.319 1192.47H621.319C621.319 1173.04 605.523 1157.24 586.095 1157.24V1159.24ZM619.319 1192.47C619.319 1210.79 604.418 1225.69 586.095 1225.69V1227.69C605.523 1227.69 621.319 1211.89 621.319 1192.47H619.319ZM448.409 398.174L418.743 413.373L419.655 415.153L449.321 399.954L448.409 398.174ZM420.089 413.807L404.89 384.14L403.11 385.052L418.309 414.719L420.089 413.807ZM404.456 385.486L434.123 370.287L433.211 368.507L403.544 383.706L404.456 385.486ZM432.777 369.853L447.975 399.52L449.755 398.608L434.557 368.942L432.777 369.853ZM539.486 427.544L524.287 397.877L522.507 398.789L537.706 428.456L539.486 427.544ZM522.941 397.443L493.275 412.642L494.187 414.422L523.853 399.223L522.941 397.443ZM492.841 413.988L508.039 443.655L509.819 442.743L494.621 413.076L492.841 413.988ZM509.385 444.089L539.052 428.89L538.14 427.11L508.473 442.309L509.385 444.089ZM569.884 486.877L554.685 457.211L552.905 458.123L568.104 487.789L569.884 486.877ZM553.339 456.777L523.672 471.975L524.584 473.755L554.251 458.557L553.339 456.777ZM523.238 473.321L538.437 502.988L540.217 502.076L525.018 472.409L523.238 473.321ZM539.783 503.422L569.45 488.223L568.538 486.443L538.871 501.642L539.783 503.422ZM343.777 415.45L358.975 445.116L360.755 444.204L345.557 414.538L343.777 415.45ZM360.321 445.55L389.988 430.352L389.076 428.572L359.409 443.77L360.321 445.55ZM373.877 398.905L344.211 414.104L345.123 415.884L374.789 400.685L373.877 398.905ZM479.719 459.287L509.385 444.089L508.473 442.309L478.807 457.507L479.719 459.287ZM508.039 443.655L523.238 473.321L525.018 472.409L509.819 442.743L508.039 443.655ZM523.672 471.975L494.006 487.174L494.917 488.954L524.584 473.755L523.672 471.975ZM493.572 488.52L523.969 547.853L525.749 546.941L495.352 487.608L493.572 488.52ZM524.403 546.507L405.736 607.302L406.648 609.082L525.315 548.287L524.403 546.507ZM407.082 607.736L346.287 489.07L344.507 489.982L405.302 608.648L407.082 607.736ZM345.853 490.416L405.187 460.018L404.275 458.238L344.942 488.636L345.853 490.416ZM405.621 458.672L390.422 429.006L388.642 429.918L403.841 459.584L405.621 458.672ZM389.988 430.352L419.655 415.153L418.743 413.373L389.076 428.572L389.988 430.352ZM418.309 414.719L433.507 444.385L435.287 443.474L420.089 413.807L418.309 414.719ZM434.853 444.82L464.52 429.621L463.608 427.841L433.941 443.04L434.853 444.82ZM463.174 429.187L478.373 458.853L480.153 457.941L464.954 428.275L463.174 429.187ZM449.14 472.706L389.807 503.104L390.719 504.884L450.052 474.486L449.14 472.706ZM389.373 504.45L419.77 563.783L421.55 562.871L391.153 503.538L389.373 504.45ZM421.116 564.217L480.45 533.819L479.538 532.039L420.204 562.437L421.116 564.217ZM480.884 532.473L450.486 473.14L448.706 474.052L479.104 533.385L480.884 532.473ZM492.544 338.11L462.877 353.309L463.789 355.089L493.456 339.89L492.544 338.11ZM478.988 384.755L508.655 369.557L507.743 367.777L478.076 382.975L478.988 384.755ZM509.089 368.211L493.89 338.544L492.11 339.456L507.309 369.123L509.089 368.211ZM447.975 399.52L463.174 429.187L464.954 428.275L449.755 398.608L447.975 399.52ZM464.52 429.621L494.187 414.422L493.275 412.642L463.608 427.841L464.52 429.621ZM494.621 413.076L479.422 383.409L477.642 384.321L492.841 413.988L494.621 413.076ZM478.076 382.975L448.409 398.174L449.321 399.954L478.988 384.755L478.076 382.975ZM448.409 59.1741L418.743 74.3729L419.655 76.1529L449.321 60.9541L448.409 59.1741ZM420.089 74.8069L404.89 45.1403L403.11 46.0522L418.309 75.7188L420.089 74.8069ZM404.456 46.4862L434.123 31.2875L433.211 29.5075L403.544 44.7062L404.456 46.4862ZM432.777 30.8534L447.975 60.5201L449.755 59.6082L434.557 29.9415L432.777 30.8534ZM539.486 88.544L524.287 58.8773L522.507 59.7892L537.706 89.4559L539.486 88.544ZM522.941 58.4433L493.275 73.642L494.187 75.422L523.853 60.2233L522.941 58.4433ZM492.841 74.988L508.039 104.655L509.819 103.743L494.621 74.0761L492.841 74.988ZM509.385 105.089L539.052 89.8899L538.14 88.1099L508.473 103.309L509.385 105.089ZM569.884 147.877L554.685 118.211L552.905 119.123L568.104 148.789L569.884 147.877ZM553.339 117.777L523.672 132.975L524.584 134.755L554.251 119.557L553.339 117.777ZM523.238 134.321L538.437 163.988L540.217 163.076L525.018 133.409L523.238 134.321ZM539.783 164.422L569.45 149.223L568.538 147.443L538.871 162.642L539.783 164.422ZM343.777 76.4497L358.975 106.116L360.755 105.204L345.557 75.5377L343.777 76.4497ZM360.321 106.55L389.988 91.3516L389.076 89.5716L359.409 104.77L360.321 106.55ZM373.877 59.905L344.211 75.1037L345.123 76.8837L374.789 61.685L373.877 59.905ZM479.719 120.287L509.385 105.089L508.473 103.309L478.807 118.507L479.719 120.287ZM508.039 104.655L523.238 134.321L525.018 133.409L509.819 103.743L508.039 104.655ZM523.672 132.975L494.006 148.174L494.917 149.954L524.584 134.755L523.672 132.975ZM493.572 149.52L523.969 208.853L525.749 207.941L495.352 148.608L493.572 149.52ZM524.403 207.507L405.736 268.302L406.648 270.082L525.315 209.287L524.403 207.507ZM407.082 268.736L346.287 150.07L344.507 150.982L405.302 269.648L407.082 268.736ZM345.853 151.416L405.187 121.018L404.275 119.238L344.942 149.636L345.853 151.416ZM405.621 119.672L390.422 90.0056L388.642 90.9176L403.841 120.584L405.621 119.672ZM389.988 91.3516L419.655 76.1529L418.743 74.3729L389.076 89.5716L389.988 91.3516ZM418.309 75.7188L433.507 105.385L435.287 104.474L420.089 74.8069L418.309 75.7188ZM434.853 105.819L464.52 90.6208L463.608 88.8408L433.941 104.039L434.853 105.819ZM463.174 90.1867L478.373 119.853L480.153 118.941L464.954 89.2748L463.174 90.1867ZM449.14 133.706L389.807 164.104L390.719 165.884L450.052 135.486L449.14 133.706ZM389.373 165.45L419.77 224.783L421.55 223.871L391.153 164.538L389.373 165.45ZM421.116 225.217L480.45 194.819L479.538 193.039L420.204 223.437L421.116 225.217ZM480.884 193.473L450.486 134.14L448.706 135.052L479.104 194.385L480.884 193.473ZM492.544 -0.889999L462.877 14.3087L463.789 16.0887L493.456 0.889999L492.544 -0.889999ZM478.988 45.7554L508.655 30.5566L507.743 28.7766L478.076 43.9754L478.988 45.7554ZM509.089 29.2107L493.89 -0.455962L492.11 0.455962L507.309 30.1226L509.089 29.2107ZM447.975 60.5201L463.174 90.1867L464.954 89.2748L449.755 59.6082L447.975 60.5201ZM464.52 90.6208L494.187 75.422L493.275 73.642L463.608 88.8408L464.52 90.6208ZM494.621 74.0761L479.422 44.4094L477.642 45.3213L492.841 74.988L494.621 74.0761ZM478.076 43.9754L448.409 59.1741L449.321 60.9541L478.988 45.7554L478.076 43.9754ZM390.422 429.006L375.223 399.339L373.443 400.251L388.642 429.918L390.422 429.006ZM462.443 354.655L477.642 384.321L479.422 383.409L464.223 353.743L462.443 354.655ZM390.422 90.0056L375.223 60.339L373.443 61.2509L388.642 90.9176L390.422 90.0056ZM462.443 15.6547L477.642 45.3213L479.422 44.4094L464.223 14.7428L462.443 15.6547Z" fill="#F95252" mask="url(#path-1-inside-1_287_77)"/>
</svg>
